<svg xmlns="http://www.w3.org/2000/svg" viewBox="0 0 200 200" width="100%" height="100%">
  <defs>
    <linearGradient id="vrindaGold" x1="0%" y1="0%" x2="100%" y2="100%">
      <stop offset="0%" stop-color="#D4AF37" />
      <stop offset="50%" stop-color="#C5A059" />
      <stop offset="100%" stop-color="#8C6D2D" />
    </linearGradient>
  </defs>
  
  <!-- Sparkles -->
  <path d="M100,20 L102,27 L109,29 L102,31 L100,38 L98,31 L91,29 L98,27 Z" fill="url(#vrindaGold)"/>
  <circle cx="82" cy="35" r="1.5" fill="#C5A059"/>
  <circle cx="118" cy="35" r="1.5" fill="#C5A059"/>

  <!-- Lotus Petals -->
  <!-- Center Petal -->
  <path d="M100,45 C108,65 112,85 100,105 C88,85 92,65 100,45 Z" fill="none" stroke="url(#vrindaGold)" stroke-width="2.5" stroke-linecap="round"/>
  
  <!-- Inner Left Petal -->
  <path d="M100,105 C80,95 72,75 80,55 C90,70 95,88 100,105 Z" fill="none" stroke="url(#vrindaGold)" stroke-width="2" stroke-linecap="round"/>
  
  <!-- Inner Right Petal -->
  <path d="M100,105 C120,95 128,75 120,55 C110,70 105,88 100,105 Z" fill="none" stroke="url(#vrindaGold)" stroke-width="2" stroke-linecap="round"/>

  <!-- Outer Left Petal -->
  <path d="M100,105 C65,100 55,80 68,66 C78,82 88,95 100,105 Z" fill="none" stroke="url(#vrindaGold)" stroke-width="1.8" stroke-linecap="round"/>

  <!-- Outer Right Petal -->
  <path d="M100,105 C135,100 145,80 132,66 C122,82 112,95 100,105 Z" fill="none" stroke="url(#vrindaGold)" stroke-width="1.8" stroke-linecap="round"/>

  <!-- Base Curve -->
  <path d="M60,108 C80,118 120,118 140,108" fill="none" stroke="url(#vrindaGold)" stroke-width="1.5" stroke-linecap="round"/>
</svg>
